<?xml version="1.0" encoding="UTF-8"?>
<svg viewBox="0 0 217.5 271.25" xmlns="http://www.w3.org/2000/svg">
 <g transform="matrix(1.25,0,0,-1.25,0,271.25)">
  <g transform="scale(.24)">
   <path d="m259.453,899.254c14.199-9.266 12.227-27.797 10.848-42.188l-2.367-8.082c8.285-13.207 7.89-27.402 20.507-38.441 4.539-3.156 6.313-9.07 9.864-11.828 24.847-7.688 43.582-32.527 62.316-48.496 14-18.531 21.098-42.387 15.184-67.028-6.508-18.531-23.664-36.472-37.075-51.652-16.367-19.516-9.07-45.93-6.113-69.391 3.551-2.957 4.34-8.871 6.508-13.207 14.594-31.543 31.945-60.128 53.246-89.304 22.481-25.824 17.746-63.086 35.102-91.078 10.843-20.899 14.789-42.977 22.875-65.055 5.914-14.391 19.129-27.602 19.523-43.766 11.043-7.886 13.41-22.472 15.973-34.5 7.492-6.898 13.211-16.558 18.14-25.629l11.832-3.941c4.735,1.184 9.075,3.352 13.411,5.324 1.777,5.715-7.297,7.293-4.93,13.207l10.058,5.324c-.394,4.731-8.875,5.321-3.746,10.446 3.352,2.761 10.649,1.972 12.227,7.492-2.172,1.578-4.734,4.336-8.086,6.309-.789,1.773-.789,4.73-2.367,7.097-1.184,22.473 13.605,39.625 10.058,64.071 0,15.968 4.141,34.695 12.817,47.902-11.438,16.957 1.383,33.316.988,50.273 2.168,17.742.984,39.426 15.578,53.621 0,4.141 3.746,5.715 7.098,7.688-1.379,3.351-4.141,5.719-3.156,9.066 2.761,3.157 13.804,0 8.875,8.481-.985,2.562-4.141,4.336-1.379,7.094 1.972,3.55 4.14.593 7.097.988 2.567,4.14-7.097,8.871-.984,12.418 2.367.199 4.73-.789 7.098.789-.395,3.351-5.125,7.492-1.774,11.039 2.957,1.183 6.114-.789 8.481.988 .394,4.137-5.719,7.883-1.778,11.235 2.961,1.972 5.325.394 9.469,1.578 1.379,4.535-7.101,11.039 0,13.601 2.758.985 6.902.199 8.871,1.578 .594,4.141-3.351,11.239 3.356,11.828 2.168,0 7.293-.394 8.675,1.774 .985,3.941-2.168,8.476.79,11.039 3.351,2.562 8.675-3.746 10.449,1.777 .988,3.153-.59,11.629 6.312,8.672 1.578.985 3.746-1.578 5.719,0 1.578,3.551 0,12.422 6.508,9.071 1.972.789 3.746-1.973 5.324,0-.984,1.773-.59,5.519 1.379,7.488 4.734,1.972 7.891.394 11.437-.395 .594,3.946 2.567,8.086 5.129,10.449 8.875-2.363 17.75,6.903 26.621,5.719 3.75.985 5.524,3.352 9.075.395 .984,0 1.968-3.551.984-5.324-14.789-25.43-22.875-54.411-33.328-82.008-3.942-19.715-9.465-39.824-9.859-59.93 .988-.988 0-3.746-.985-4.734 4.535-2.957 5.719-8.082 7.098-12.813-5.719-16.953-4.93-36.863-17.156-51.258-.985-5.32-3.551-10.25-6.114-15.179 16.367-14.586.59-35.285 6.114-52.633 1.972-6.508.789-13.211-3.352-18.137 2.957-7.887-.789-16.957-2.367-25.039-.985-7.098 2.957-17.148-5.129-21.879 11.043-10.648 11.637-29.574 9.469-46.527-1.184-9.856-13.61-16.164-7.496-26.613 3.156-22.672.789-40.61 5.523-64.465-.988-26.02-5.129-56.3792-28.004-75.1097-24.648-14.7851-53.047-17.9375-80.656-23.6562-32.934-9.6602-75.922-9.2657-107.867,5.125-.989,1.1836-3.551,1.5781-4.145,3.3515 1.383-8.8711.199-18.1367-6.308-25.625-9.665-9.46482-21.692-11.63279-35.102-13.80076h-.988c-22.676-1.18359-47.723,3.35157-70.598,7.29296-9.859.7891-19.523-4.33592-28.594-3.94139-34.511-5.32422-73.754-10.84375-106.293,2.95699-14,6.5039-32.34,11.6289-36.679,29.3711-9.27-6.1093-20.114-2.1679-30.368-3.3515-17.75,5.1289-42.9918,10.4492-52.6519,29.375-3.1563,14.7851 3.9414,28.5859 14.1953,39.43 11.6366,8.871 27.0196,18.136 42.2036,17.543l2.957.984 25.242-2.758v.985c-37.664,19.714-53.641,62.296-48.117,105.863 1.578,9.265 6.507,15.969 8.675,25.039 6.508,7.687 10.453,18.332 20.313,23.851 1.777,21.293 4.734,44.356 15.777,63.086 3.551,13.403 2.168,29.571 8.481,41.2 7.886,16.757 10.648,34.105 21.886,48.89 4.93,19.125 7.496,41.203 23.27,53.621 1.973,25.828 20.312,43.371 20.906,68.407 4.731,10.054.985,18.73 1.379,29.968-25.242,24.446-74.344,43.172-69.809,87.332-1.972,1.575-6.902,1.18-9.464,1.969-6.114-4.73-1.778-16.363-10.454-18.137-5.523-1.183-9.07,3.352-12.816,7.098-2.367,4.535-2.961,9.856-5.328,14.195-11.832-1.183-23.664-2.562-35.4962-7.886-10.2539-3.153-26.8164,7.492-28.5937-8.082-1.7734-2.957-4.7305-4.93-7.4922-6.703-6.9023,1.972-14.1992,5.324-17.5508,12.812-.5937,2.172-.5937,5.914-3.9453,5.719-4.7305.789-10.6484-3.156-14.1992,2.367-4.3359,2.168-5.5195,2.957-9.07032,6.699 .19531,9.66-7.49219,18.336-6.11328,29.77 1.37891,11.828 4.92969,26.418 16.1719,32.332 15.1836,8.672 35.4961,2.957 53.2422,6.703 2.1718-.594 6.1132.195 7.4961.785 2.5625-.984 6.9023.199 9.4648,0 15.973-3.152 28.594,7.098 43.188,9.66 13.605,4.141 25.242,5.125 38.058,11.238l-1.379,5.715-.988-.785c1.578,2.957 1.383,5.125-.984,7.488-2.762,21.688 7.886,42.188 25.636,55.004 4.535.395 2.367,2.957 4.34,5.715 5.914,5.719 10.055,13.406 13.211,21.488 2.563,3.352 8.281,3.747 12.426,1.379 2.363-.984 6.109-2.363 9.465-.589v.984c4.336-1.18 7.097,4.141 11.832,2.961 .59,3.347-5.719,5.519-2.762,9.855l12.422,23.262c4.144-.984.594-3.941 6.113-3.746"/>
   <path d="m210.941,894.523c6.707-5.324-3.941-8.675-5.125-13.406-5.918-6.898-8.675-16.558-11.043-25.035-3.746-6.703-5.918,2.563-9.464,2.758-8.68,13.996.785,30.359 9.464,41.398 3.352,1.184 5.52,1.778 9.071.395 1.972-2.168 4.34-5.715 7.097-6.11"/>
   <path d="m251.766,857.461 5.718-17.547c1.575-2.758 4.141-.394 6.114-.394 .789.394.59,1.382 1.574,1.777 2.172-8.082 7.297-14.59 8.086-23.262 1.972-7.691 9.074-9.859 13.609-16.168-3.156-.984-5.918.594-8.48-2.363-.789-2.563 1.379-3.945 2.957-5.719 9.664,3.156 19.523-3.746 28.793-7.492 24.648-23.063 55.808-40.805 59.949-77.473 3.156-16.562-6.113-33.91-15.777-48.3-12.227-14.786-27.805-28.192-32.145-47.508s-1.184-40.02 5.129-56.582c12.227-21.883 22.68-46.524 36.68-68.801 15.382-22.867 35.496-45.145 40.82-73.531 3.945-31.938 22.48-55.395 28.988-86.938 3.746-8.082 5.524-18.336 9.465-27.008 7.692-17.347 24.848-35.089 15.582-55.593-1.183-6.11-8.68-11.633-6.707-17.543h2.957c6.313,6.898 12.621,15.964 14.793,24.836 4.336-9.661 6.703-20.7 8.871-30.555 15.383-15.18 27.02-34.301 26.625-55.988 2.563-.59 2.957.789 5.719.988 2.957,8.476-.594,16.953-2.762,25.625 14.789-.195 15.973-17.543 25.637-25.625 1.973-.789 1.973,1.574 3.156,2.363-.988,8.477-6.707,15.379-11.242,21.883 7.102-.195 14.594-6.504 18.934-10.844 5.125-5.519 11.437-15.179 18.535-19.515 10.648-8.282 13.605-22.672 20.902-33.317 4.535,4.535-.195,12.028-1.379,17.547-2.957,7.488-7.496,14.785-14.789,21.488l-.394-.593c-2.368,2.562-4.735,4.336-7.692,6.308-5.719,12.617-16.961,16.559-28.004,23.262 1.774,2.168 4.34-.789 5.129,2.762 .196,4.535-1.972,8.476-3.75,13.207 3.356,3.746 12.031,2.562 9.074,9.66l-3.746,5.125c2.364,2.367 6.504,2.762 9.465,5.324 .59,1.969-.988,1.969-1.972,3.152l1.972,1.579v-.59c5.914-1.184 13.211-3.352 19.918-2.762v.394l1.969-1.378c28.203-2.762 49.105-10.844 74.937-21.883l7.692-.395c1.383-25.234.594-49.086 4.14-74.125-.589-24.84-6.113-55.199-29.382-72.1521-7.887-5.5196-17.746-6.7031-26.621-9.8555-2.368-.1992-7.297-1.7734-10.848-2.3672-20.902-2.957-43.582-11.039-65.668-13.7969-24.649-1.9726-44.766.3907-67.836,7.0938-4.93,3.7461-10.453,6.9023-16.172,10.8437-2.168,13.6016-11.633,21.4883-18.535,32.3321 13.211-4.7344 31.551,1.1797 42.793,11.4336 1.379,3.5465 6.113,5.1245 4.336,9.4605-1.578-1.773-2.762,1.774-3.352-1.378v.394l-1.379-.394v.394c-14.199-9.2656-28.004-17.3476-44.765-11.8281-1.184,16.3631-19.723,19.9101-20.313,36.0741-4.535,7.297-7.886,13.801-13.804,20.305-1.774-.59-2.957,1.578-4.34-.391 2.566-6.113 6.312-11.633 9.468-17.547-7.89,6.504-17.55,12.813-28.003,8.477l.589-2.367 15.582-5.715c6.114-5.52 12.227-11.434 16.563-17.942-14.59-12.812-37.469-18.5308-56.399-11.828-4.14,4.141-9.07,3.551-13.214,7.098-12.817,3.352-25.832,6.508-38.649,9.859-22.09,4.336-27.215,24.246-37.469,41.399-9.464,27.203-6.902,57.168 5.325,82.992 11.632,21.094 35.496,31.348 56.992,35.094 9.07-29.574 16.168-63.481 45.945-79.645l20.512-13.406c2.367,1.184 4.73-1.973 7.098-.789 4.535-.195 8.281,1.578 11.437,4.141 .988,7.492 2.762,17.742-3.352,24.246-3.55,10.054 9.27,7.886 13.805,11.832 4.731,2.363 9.07,7.687 11.832,12.812 1.379,6.309-3.945,9.461-8.48,12.418-5.324,1.973-12.227-.984-12.422,7.098l5.125,11.828c5.129-1.578 8.086-4.93 12.82-7.098 2.363,1.383 1.18,4.141 0,5.324-3.156,7.887-14.004,4.336-11.832,12.813-1.383,1.973-3.355,4.73-6.113,4.141-4.934-1.184-6.902-.59-11.832-2.758-.789,5.125-.199,9.265-3.945,13.207 7.296,10.644 10.253,23.066 18.14,33.316 9.664,16.953 8.086,40.414 1.383,58.746-3.352,2.563-2.367,10.45-9.07,9.071-.2-3.551-1.184-7.493 1.574-10.844 6.113-19.516 8.086-48.496-7.688-63.676l-5.722-12.812c-.59,2.757-3.153,5.32-5.125,7.093-1.383-.785-5.719,0-3.746-2.757 3.546-3.747 3.546-10.25 2.761-14.786l-14.793,1.969-2.761-3.742c3.75-4.734 12.226-2.957 17.156-5.324 1.383-.789 4.539-2.168 4.734-4.731 2.168-3.945-4.929-11.633 2.367-13.211 5.915.2 9.071,4.141 15.184,4.735 2.957-4.34-1.379-7.887-2.957-12.422-1.184-3.746-8.48-6.504-3.746-11.434 4.535-.59.394-9.461 6.703-10.449 3.551,1.383 8.875,1.184 12.82-.984 4.141-3.153-.593-6.11-2.367-8.477-4.14-3.746-10.058-6.703-14.789-4.73-2.367-.395-5.523-2.563-5.719-5.125 .985-3.946-1.382-7.297-3.355-10.45 3.945-6.902 7.891-12.422 5.719-20.898-9.661-4.141-18.536,9.859-27.016,13.211-15.777,7.094-27.215,24.445-32.34,41.398-5.324,10.446-8.875,22.473-11.437,34.496 .984,1.184.984,1.973-.395,2.957-3.156,38.641.985,75.114-7.101,115.329-2.563,13.601-2.957,26.218-3.352,38.835-.789,1.774-2.957,1.774-4.34.985-2.957-6.309-.195-14.586-.394-20.895-6.703,4.926-8.282,13.207-11.438,18.137-.984,2.563-3.547.789-4.336,0l-.789-1.578c3.942-8.281 8.281-17.348 16.563-23.262 3.75-24.445 8.679-46.328 6.707-71.168 2.562-18.136-1.578-35.484 1.773-55-6.508-1.578-14-4.14-21.691-6.703-1.184,3.942.195,8.082-1.578,12.418h.589c-.39,21.488-11.832,45.145-9.464,67.422-2.563,19.32-8.282,40.019-4.336,59.34 6.113,32.527 16.168,60.914 22.281,94.035-2.758.789 1.383,1.773 0,2.758 2.961,25.828-3.746,49.09-19.524,69.394-5.718,4.93-13.406,6.11-21.296,8.477-6.114-.594-13.805-1.774-18.536-4.336-3.351,12.812-6.507,29.766-13.214,42.383-9.661,12.222-27.016,22.472-33.325,37.457l-.988,3.746c7.691,2.758 18.539,6.109 26.227,4.73 17.75-1.773 36.089,5.719 53.64-.984 6.903.195 12.817-.594 19.918,1.969 6.309.789 11.832-6.504 18.93-6.703-.984-11.039-12.422-16.754-14.59-27.993 .195-.589.789-.394 1.379-.394l-.984-.985 3.351-1.972c6.309,8.082 17.352,16.758 18.535,27.996 5.719-9.859-4.336-15.18-4.336-24.645l-4.339-10.449c1.183-2.363 3.351.395 4.339,0 4.141,7.887 6.903,16.168 10.45,24.25-1.184,10.055-2.168,20.305-3.746,30.36-4.34,7.687-6.114,16.363-10.059,24.246l-2.363-1.379c.789-7.688 5.914-16.164 6.703-22.867-.789,8.476-7.297,11.828-10.848,18.925-.789-.394-1.773-.394-2.562-1.382 6.312-7.094 3.351-16.165 8.086-23.657l.589-3.746c-6.308,3.746-12.226,7.692-19.918,9.465-7.293-6.703-14.394-3.352-23.269-2.957 7.891,12.023-2.168,21.488-9.07,30.949-5.52,1.774-4.93-4.73-8.086-7.097-1.774-8.872-4.731-16.754-11.832-22.473l.394-1.379c-15.183-5.125-30.566,4.73-44.566-4.73-11.438-3.747-22.481-6.704-36.09-4.735l-.984.988c-19.918,1.379-37.864,6.704-55.6099-1.382-24.8476-8.871-48.9062-1.379-76.3203-.985-3.7461,3.352-9.6601,7.293-7.6875,12.817-6.90624,8.277-6.70702,21.683-3.75,31.738 2.7617,9.266 10.4531,19.121 20.3125,20.5 1.7735-.789 4.3399,1.777 5.7188-.984 4.1406,2.168 7.6914-.59 11.0429-.395 9.2696.59 18.5391-4.141 28.0039-6.309 14.1993,1.184 36.0856,17.348 48.3126-1.378 4.934-3.157 1.973-11.04 8.086-11.829 2.762,4.141 1.183,9.266-.984,13.801-4.141,6.305-11.637,10.645-18.934,12.813 8.68,2.168 15.777-5.719 23.273-8.082 5.125-2.957 9.266-7.887 14.196-10.45 .593,5.914-6.309,10.055-10.844,13.207-6.313,2.957-12.031,6.704-18.934,8.477 17.551,9.66 43.387,7.297 58.77,21.488 6.308,4.735 12.027,8.676 19.125,12.223 .988,3.156 4.34,6.703 7.101,9.07 .789-21.093 1.774-50.074 26.032-58.746l.984.785c-16.566,10.254-22.285,27.207-23.269,45.739 2.367-16.559 18.734-31.149 34.707-36.079 2.957-1.183 6.312-.195 9.07.79 .988.988 1.578,1.972 1.383,3.351-.789,1.774-3.746.789-3.946.594-9.07,1.574-16.562,7.293-24.058,13.207 10.648-7.887 21.89-7.293 32.144-2.762 .789,1.184 2.563,1.973 1.973,3.746-2.762,1.578-6.113-.984-9.07-1.379-5.918-.984-13.215.985-18.934,3.746 7.496-.988 18.539.59 23.27,8.477v3.352c7.691-1.774 13.609-8.082 21.296-9.86 1.383,1.383 4.934.789 4.34,3.746-1.379.989-4.73,0-6.703.989-1.578.789-3.156,2.168-5.129,2.363 5.129.199 12.817.594 15.578,5.125-8.875,1.777-15.183-3.742-22.281,2.957 3.942,9.465-3.551,20.109-7.101,28.98-4.93,10.844-12.028,19.516-18.141,29.375-4.145,4.336-9.074,5.321-15.578,4.731-.988-.789-2.567-1.184-3.356-.985-3.156-1.972-6.507-4.734-8.48-7.097-2.363,1.773-6.113,2.363-9.465,2.363 6.313,6.703 8.285,15.18 14.594,21.883 1.578.199 1.972-.195 2.367-1.379 5.324-1.379 9.859-5.52 15.184-1.973 5.918,2.762 9.464,4.34 15.777,4.34 .984-1.777-.395-5.324 2.762-5.324" fill="#81ca6d"/>
   <path d="m245.258,816.258c5.324-9.856 10.648-21.094 11.832-32.328-17.945,8.871-33.922,23.851-41.809,42.777 1.379,1.379 1.184,2.563.395,4.141l-.985.984c1.969,4.93 6.704,5.324 9.661,7.688 11.242-.391 14.593-16.165 20.906-23.262" fill="#6dc25b"/>
   <path d="m208.58 830.45c-0.394-7.887-8.48-12.027-13.215-18.531-5.519-6.703-15.383-16.953-21.89-23.262-1.575 18.137 9.664 38.246 24.652 45.539 3.945 1.184 8.281-0.199 10.453-3.746" fill="#6dc25b"/>
   <path d="m212.324,804.234c.196,4.731 0,7.493.59,12.418l4.734-9.461-5.324-2.957" fill="#fff"/>
   <path d="m204.238,803.84c-.984,3.547-1.972,5.914.59,9.066-.984-2.758-.394-6.109-.59-9.066" fill="#fff"/>
   <path d="m199.109,793.785c-4.14-5.125-9.464-7.887-15.183-11.828-.789.984-4.735,2.168-3.352,3.746l1.379.59 13.41,14.785c0-2.957 1.383-5.32 3.746-7.293" fill="#fff"/>
   <path d="m251.77 779.2c-6.903-7.687-15.383-6.699-24.258-5.32-8.875 3.746-13.41 12.023-13.606 21.488 4.336-0.593 7.493 0.395 11.239 2.758 7.89-7.687 16.172-15.574 26.625-18.926" fill="#fff"/>
   <path d="m178.21 776.83-4.34-2.957 0.594 6.309c1.184-1.184 3.156-1.579 3.746-3.352" fill="#81ca6d"/>
   <path d="m95.578 744.1c-7.2968-3.546-17.156-5.125-24.254-5.32-4.1406 1.574-8.6758 2.758-13.215 3.352 9.8633 2.562 16.566-1.184 25.047 1.379 3.9453-0.594 8.875 0.984 12.422 0.589" fill="#81ca6d"/>
   <path d="m115.496,722.223c-.195-.985-1.578-2.168-.984-2.957-3.946-5.321-9.071-5.125-14.594-8.871-4.9297,0-2.9571,5.519-5.3242,8.085-5.918-1.578-7.6915-9.859-9.4649-14.785-.5937-.988-1.9726-.394-2.7617-.394 .3945,13.402 13.4101,22.273 22.2848,31.144 5.914,0 9.071-7.488 10.844-12.222"/>
   <path d="m32.4766,717.492c1.1797-4.926 2.957-9.066 5.125-13.406-.5899-1.379-.5899-1.574-1.7735-2.758-7.1015.195-5.7187,8.871-8.6758,13.207-2.7617-1.969-6.5117-7.687-11.2421-5.125-1.5782.789-3.5508,2.367-3.3516,4.141 .1953,4.73 2.5625,9.461 6.1133,12.023 1.5781,2.172 1.9687,4.735 4.7304,5.719 7.1016,0 6.5079-9.07 9.0743-13.801"/>
   <path d="m259.45 690.29-0.984-1.773-13.805-0.989 9.465 22.868c4.734-5.125 8.086-13.207 5.324-20.106" fill="#fff"/>
   <path d="m146.85 672.35c-2.368-3.547-4.93-8.477-5.125-12.813-3.356-0.988-5.524 3.153-7.102 5.125-2.367 2.563-1.184 6.309-2.562 9.067l14.789-1.379" fill="#fff"/>
   <path d="m192.406,658.547c12.227-10.25 27.41-24.051 30.367-39.82 2.567-6.704 4.34-17.348 7.692-24.641-1.379,5.32-9.07,5.519-11.438,10.445-4.336.789-7.691,4.535-10.843,7.098-18.934,12.422-41.219,33.91-39.442,58.355 4.336-.789 11.238,1.969 15.184,2.364 .988-4.926 5.129-9.461 8.48-13.801" fill="#81ca6d"/>
   <path d="m58.504 668.01c-2.957-3.157-2.3633-7.688-7.0976-8.871-3.5508 0-5.918 2.562-8.4805 4.73l-1.9727 5.719 17.551-1.578" fill="#fff"/>
   <path d="m324.53 644.36c-1.183-1.773-3.156-2.562-4.734-1.378 0.789 5.714 4.144 10.25 7.101 15.179l2.762 1.774c-0.594-5.52-2.961-10.645-5.129-15.575"/>
   <path d="m712.035,614.391c-15.183-36.868-31.75-73.336-39.047-113.356l-3.746-26.613c.196-.984 1.774-1.973.395-2.957-14.989,0-33.129-1.578-48.907-.395-8.875.59-16.761,1.184-26.031-.394v-.985c-3.156,1.184-6.902,1.575-10.058,1.379 1.972-.394 1.777,1.774 2.367,2.762l-2.367,5.32c1.972,2.368 6.312.989 8.086,4.336l-1.379,10.45c2.757-.59 5.718.593 7.687.789 .988,4.535-2.562,7.097-2.957,11.039 2.172,1.773 5.719-.395 8.086,2.367 0,3.547-1.773,6.504-2.367,9.855 1.973,2.957 8.285-1.773 9.469,3.352l-2.762,9.465c2.562,3.152 10.055-.594 10.449,5.32-1.773,2.957-2.758,6.902-2.957,9.859 4.141,3.153 9.859-2.367 11.832,3.942-.394,2.758-2.957,5.914-1.379,8.476 3.156,3.352 10.059-2.761 12.422,3.352-.195,3.941-1.773,6.703-.59,10.055 4.731.789 9.071-3.157 10.453,2.363l.985,7.492c4.929,3.156 11.043-4.531 11.832,2.957-.594,1.774-.199,4.34.984,6.113 3.356,2.364 8.086-5.125 10.453.985-.984,2.367-.394,6.109 1.379,7.097 2.961,3.352 9.469-4.73 12.031,1.379 .395,2.762-.984,6.508 2.762,7.688 2.957-.985 8.281.988 10.844,3.746 4.34,1.578 7.691,2.562 12.031,2.762" fill="#81ca6d"/>
   <path d="m273.652,582.059c8.68-9.461 12.426-22.079 15.188-33.118-2.762-.593-4.539-2.562-7.496-3.746-14.594-3.351-30.567-2.367-43.383,2.758 7.691,12.223-2.762,23.656 2.367,36.668v-.59c4.535-2.562 4.731,4.535 9.07,4.731 8.676.789 17.946-1.184 24.254-6.703" fill="#5ebc4f"/>
   <path d="m249.004,540.859c14.789-2.171 27.805-4.535 41.215,2.364 2.168-25.825-4.93-51.649-11.832-74.914-3.551,1.382-7.891-2.758-11.832-1.969-16.762.394-36.09.59-49.895,10.055 0,26.218 17.356,42.187 20.512,67.222l1.379.59c1.972-2.363 7.297-1.18 10.453-3.348" fill="#6dc25b"/>
   <path d="m188.66 414.49c-13.609-33.316-18.144-69.59-34.707-102.51l-2.367-9.859c1.773 13.211 5.125 26.813 12.422 37.852 0.988 10.843 1.383 24.445 5.129 35.289 9.66 15.968 10.054 37.258 22.875 50.664 4.929 15.969 6.508 34.695 17.156 48.496 4.535-23.262-14.395-39.231-20.508-59.93" fill="#81ca6d"/>
   <path d="m275.625,461.609c.199.196.594.59.395.985h.988c-1.578-4.141-.988-8.676-2.367-13.406-6.508-21.489-10.059-45.34-3.75-66.829-21.692-6.703-43.778-7.886-65.668-.988-6.309,2.367-12.227,6.309-17.551,9.859 6.707,23.262 18.539,43.172 28.004,65.055l.59,15.18c18.144-10.449 38.652-11.633 59.359-9.856" fill="#5ebc4f"/>
   <path d="m621.32,463.973c18.34-.789 35.102,1.972 53.641-.985 5.125-9.465-3.156-20.304-3.746-30.754-1.777-6.703-2.567-13.996-6.707-19.515-8.676,2.957-10.449,11.828-19.918,15.179-1.578,2.563-4.93,5.125-7.692,7.489-7.492,9.66-18.339,14-28.988,18.531-11.043,3.551-20.113,6.113-30.367,11.043 16.762-4.535 28.199.785 43.777-.988" fill="#f8a272"/>
   <path d="m618.953,440.711c2.367-4.336 6.508-2.957 9.469-7.098 8.871-11.234 20.312-19.32 31.75-27.008-.789-5.714-3.156-11.828-9.074-13.406-29.383-1.969-58.172-17.347-84.993-27.008-2.566,1.579-5.917,1.778-6.507,5.719-1.578,7.688-1.578,17.348 1.773,24.246 .199-3.941-.394-7.883.594-11.433 4.73,1.578 2.957,8.281 4.73,12.222 1.578,13.996 4.141,27.008 5.129,41.793-1.383.789-3.551,1.383-4.14-.394-1.184-1.969 0-7.293-.989-10.446-.394-6.902-1.972-15.574-3.746-23.261 .395,15.179-3.156,42.383 12.227,54.015 14.199-5.129 31.156-12.027 43.777-17.941" fill="#fab790"/>
   <path d="m665.496,448.793c-2.566-4.926-6.707-9.266-7.691-14.785-.989-1.184-2.172-2.168-3.746-1.774 1.773,8.282 4.535,15.18 10.843,21.684 3.157-.59.395-3.352.594-5.125"/>
   <path d="m665.89 434.01c-3.75-2.957-1.973-9.266-7.102-10.844-0.394 6.508 3.945 12.422 7.102 17.547 2.168-1.578 0-4.535 0-6.703"/>
   <path d="m579.91,424.547c-4.734-9.859-4.34-20.504-7.496-30.359-.394.789-1.379.195-1.973.394 .395,12.223 2.762,23.656 7.102,34.301 2.957.59 2.367-3.153 2.367-4.336"/>
   <path d="m584.641,414.098v-16.164c-.395-.789-1.578-.2-2.368-.395-2.957,6.703-.195,15.375-.39,22.277 2.363-.394 2.957-3.351 2.758-5.718"/>
   <path d="m656.422,386.5c9.074-10.449 2.762-24.84 2.367-37.457-.789-8.477 6.313-19.52-2.367-25.629-7.297,1.184-12.422,7.098-20.508,7.688-20.312,4.535-33.523,22.082-52.258,29.769l-3.746,1.578c22.281,10.051 49.695,20.5 75.528,24.051h.984" fill="#f8a272"/>
   <path d="m267.539,373.289c.988.594 2.762,1.578 4.141,1.973 4.144-21.684 3.156-48.102 10.453-70.774l.988-17.152c-26.625-16.164-60.348-15.375-89.73-8.082-11.438,4.34-25.438,8.676-35.496,17.547 8.679,29.965 22.48,57.762 28.398,88.91 23.27-15.574 51.469-16.168 81.246-12.422" fill="#6dc25b"/>
   <path d="m651.691,370.531c-.394-11.433-.593-21.488-4.734-30.558-.394,9.07 0,21.488 3.352,30.953l1.382-.395"/>
   <path d="m657.41,361.461-2.367-21.883-1.973-1.379c.395,7.293-1.379,21.684 3.352,30.36 2.367-1.184 1.383-5.125.988-7.098"/>
   <path d="m187.672,355.746c-.789-3.156-3.746-7.691-4.731-10.449-5.128-12.223-7.496-24.051-7.101-38.442h-2.367c-1.379,20.7 6.312,40.415 16.172,58.747 1.972.589 1.578,0 3.746-1.379l-5.719-8.477"/>
   <path d="m643.012,351.012c-.985-3.352 2.367-7.883-.785-11.039-4.735,6.507-3.75,18.531.785,25.234 3.945-3.547-.785-9.066 0-14.195"/>
   <path d="m575.766,356.73c21.695-3.546 30.765-24.246 52.656-29.964 8.676-5.719 18.34-7.887 28-12.418l1.383.59c-1.184-12.223-3.157-22.278-3.746-34.696-8.286-10.449-20.907-3.551-30.371-7.097-22.286-9.86-50.879-12.618-72.176-25.235-1.379.789-5.129-1.773-7.692-.984-5.718,7.293-1.379,18.726 0,26.219 13.606,28.191-2.168,59.535 17.157,85.359 .789.789 3.746.789 5.128,0 2.958.199 7.493.199 9.661-1.774" fill="#fab790"/>
   <path d="m192.996,350.422c-4.73-12.418-8.082-25.629-10.055-39.231-1.382-.984-.988,2.168-2.367.395 .985,11.434 3.746,26.812 10.059,39.426l2.363-.59"/>
   <path d="m559.598,333.863c-1.578-9.859-2.957-19.515-2.957-30.359 2.957-5.125-1.184-11.434-.989-16.563-1.972-5.714.594-15.769-4.73-20.894-1.383,18.726 4.73,39.625 4.73,58.746l3.352,15.773 2.367.395c.789-3.352-1.379-4.141-1.773-7.098"/>
   <path d="m194.773,337.215c-.988-7.098-3.351-17.547-3.351-24.645l-1.777-.59c-1.973,9.067.789,16.954 3.351,25.235h1.777"/>
   <path d="m565.316,304.883c-1.972-7.887-.789-17.153-3.945-24.641-2.168,6.11-1.578,14.981-.394,22.274 2.957,3.746 1.777,9.265 4.734,12.816 4.73-2.367-.988-7.293-.395-10.449"/>
   <path d="m574.781,310.207h-.59c-2.367-9.266-1.183-20.898-2.761-30.953-2.172.394-1.578,3.551-2.367,5.324-1.774,10.844.789,18.727 3.351,28.981 1.973,1.179 2.367-2.563 2.367-3.352"/>
   <path d="m168.74 283c23.465-11.039 43.582-13.406 69.219-14.586 15.973 1.379 30.367 3.746 45.16 10.84-19.523-8.871-36.683-25.625-42.203-46.918-3.156-10.449-5.719-23.066-5.324-33.316-24.453-12.813-54.035-14.391-78.684-2.368-5.129 30.364-6.707 64.465-0.594 93.645 4.536-1.777 7.297-6.313 12.426-7.297" fill="#5ebc4f"/>
   <path d="m189.055,123.516c0-3.547 3.547-4.536 4.336-8.082h-1.379c.195.789-.59.984-.985,1.578-2.566.195-6.902,1.574-9.863,3.351-11.832,6.504-25.242,12.813-36.68,23.262-23.859,21.289-27.015,54.211-24.648,85.359 4.73,17.743 10.848,33.121 26.031,45.539-2.566-53.425.196-114.929 43.188-151.007" fill="#81ca6d"/>
   <path d="m160.262,270.777c-3.157-22.472-.789-42.382 3.156-63.675-.199-1.184-.594-2.364-.395-3.747-1.578,2.368-1.183,5.52-3.351,7.493l.59,3.941h-1.578c-3.157,18.137-4.141,36.668-.789,56.383l2.367-.395"/>
   <path d="m657.41,256.586c.985-13.406 4.93-28.391-3.351-39.035-5.325.59-8.875.195-11.832,4.336-2.567-1.184-3.356,1.972-5.719,2.367-7.297-.594-13.016,3.941-19.524,5.715-17.949,3.551-36.089,10.449-55.613,10.449-1.578.594-3.945.594-6.113.988 11.242,4.731 21.496,10.446 33.722,11.828 8.481,2.957 16.762,4.731 25.637,8.082 8.086,5.125 22.875,5.52 33.328,5.125l5.125,1.973c-.789-4.34 2.762-7.887 4.34-11.828" fill="#f8a272"/>
   <path d="m654.059,240.418-2.961-6.309c-.789,3.157 1.183,11.829-.789,16.168-1.379-5.718 1.183-14.195-4.336-17.547 .195,5.719-.395,13.407.394,20.504 5.125-2.562 2.758,3.743 5.324,5.715 3.942-4.926 2.368-12.617 2.368-18.531"/>
   <path d="m166.77,238.449c-.79-10.449 1.378-20.703 2.957-30.754-.789-.199-1.579.395-1.973-.593-4.731,14.785-5.324,32.921-2.758,47.906l1.774.984c1.378-5.914-.59-12.023 0-17.543"/>
   <path d="m174.461,228.59c1.773-7.293 1.973-14.192 4.141-20.895-.59-.199-1.184.985-1.774,0-4.34,8.672-7.297,22.274-6.113,34.496l1.773,1.579c1.379-4.93 1.184-9.661 1.973-15.18"/>
   <path d="m236.18 190.94c0.199-23.856 12.226-44.95 25.636-63.086-17.156-9.461-40.23-20.5-58.371-10.051-1.379 1.773-5.324 3.941-3.351 6.699-17.75 11.633-29.582 29.375-36.68 47.906-0.789 6.11-3.746 11.239-4.734 17.153 25.242-10.844 54.625-8.282 77.5 1.379" fill="#6dc25b"/>
   <path d="m175.445,168.66c6.313-12.023 11.438-23.262 18.539-35.09-2.171-1.578-4.339,2.368-5.718,4.731-6.903,9.265-11.438,19.91-15.778,29.965 .985-.59 2.367,1.578 2.957.394"/>
   <path d="m190.63 157.82c3.547-5.519 8.676-10.445 10.844-16.753-5.719 3.152-13.016 11.234-14.789 19.515 3.351 3.152 2.367-1.379 3.945-2.762"/>
   <path d="m202.465,154.074c3.746-5.719 7.293-11.828 12.816-16.168v-1.578c-5.914.199-9.859,6.902-13.804,11.438-1.184,1.773-4.141,7.882.988,6.308"/>
   <path d="m267.539,122.137c4.141-2.367 7.891-5.125 12.82-5.719-13.41.395-20.906-14.191-34.707-8.477-7.691.989-17.949,1.379-26.625-1.378-.589,3.941 5.719.589 9.071,2.367 1.972.984 3.156-.2 5.129.984 10.847,1.184 23.269,6.899 33.328,13.207l1.379-.394-.395-.59" fill="#81ca6d"/>
   <path d="m139.36 115.43c4.731-2.563 10.055-6.309 13.211-10.844 4.141-3.152 7.297-8.4767 9.465-13.207 1.184-3.7461 0.988-8.6758 5.719-10.055-9.66-10.055-8.676-20.894-9.859-34.695h-8.086l-0.985-0.9844c-21.691-1.7773-42.988 5.3204-61.328 17.148-1.1836 1.7734-2.1719 3.1562-3.75 5.3242-5.125 17.148 7.1016 29.57 19.918 39.82 11.043 4.93 22.086 10.45 34.707 9.465l0.988-1.972" fill="#d73b35"/>
   <path d="m192.996,106.563c4.539-.79 9.27-4.141 14.199-1.973l1.973-.395c-12.621-3.351-25.242-9.6598-36.68-17.1481v-.9883c-.59,2.5625-.394,5.5195-2.367,7.6914 .395-.1992.594.1953.988.3906-2.961,1.7774-3.75,5.7188-5.718,8.4804-5.129,4.336-8.68,11.039-14.2,13.402 14.789-.984 29.184-4.925 41.805-9.46" fill="#fff64a"/>
   <path d="m300.672,110.703c-1.777-1.773-4.145.195-6.508-.394l-3.945,2.363c3.551-.785 6.508-2.758 10.453-1.969" fill="#d73b35"/>
   <path d="m414.652,83.3008c9.27-11.4336 16.961-23.461 19.129-39.0352l-2.957.9883c-29.976-1.5781-58.176,6.5039-84.601,7.6875-18.34-4.3359-37.664-3.1562-56.399-6.7031-3.156-1.1836-5.129,1.9726-7.691.9844-5.324,18.9257-10.254,37.0625-22.285,53.6213l12.82,7.097c9.07-8.0816 15.184-19.1207 18.535-30.359-.59-1.9687-1.183-3.1523.594-4.7304 5.125-2.3672 9.269,0 14.594.3945 3.152,1.5781 6.113,6.7031 4.73,11.0391 0,2.1679-2.957,4.9296-1.379,7.8867-1.972,1.7734-.394,3.1523-1.972,4.9258 0,1.3828-1.379,3.7463-2.762,4.7343 5.719-5.3242 11.832-14.5898 10.058-24.25 4.731-4.1406 11.832-.3945 17.551.3946 2.367,1.1836 5.719,3.7461 5.719,6.7031-.988,4.1406.195,9.0703-2.957,12.418 2.367.3945 5.125-2.3633 8.086-1.9688 12.422-4.1406 28.199-1.1836 40.82,4.3359 2.168.9842 3.352,1.3792 6.113,3.1562 4.336,1.574 7.098,4.531 10.055,8.082 8.875-7.687 9.074-17.7421 14.199-27.4022" fill="#fff64a"/>
   <path d="m298.3 102.23c3.152-6.7036 6.113-13.407 6.308-21.293-0.984-2.7578-5.125-2.7578-7.691-1.9688-2.949 11.594-6.547 16.363-17.156 30.949 1.578 0.789 3.746 0.195 5.324-0.594 3.75-3.152 7.691-7.488 13.215-7.093" fill="#d73b35"/>
   <path d="m324.93 102.23c0.59-6.309 8.086-9.4653 5.324-17.153-2.367-1.3789-5.125-3.3515-8.086-1.7734-1.773 9.2656-6.309 14.586-12.027 22.277 4.535-1.578 10.254-0.199 14.789-3.351" fill="#d73b35"/>
   <path d="m252.36 100.25c16.762-24.641 26.032-56.184 25.043-88.121-37.464-7.0976-74.343-1.9726-104.91 18.926-10.058 10.25-7.097 29.375-2.761 40.809 14.003 21.488 39.836 25.824 63.5 30.754 5.324-0.594 12.621-0.199 19.128-2.367" fill="#d73b35"/>
   <path d="m408.14 83.301c4.339-4.7305 1.578-12.422 0.394-17.547-3.551-4.9258-9.465-8.2773-15.773-8.6719-6.903 2.7578-15.582 7.293-15.977 16.164-1.773 4.1406 0.395 9.6602 3.75 12.418 2.957 3.3515 6.899 4.7343 10.844 5.7187 6.113-1.3789 14-2.5625 16.762-8.082"/>
   <path d="m397.695,83.3008c4.336-.1992 2.364-4.1406 4.731-6.3086-.985-4.1406.394-10.4492-5.324-11.8281-2.563-1.3789-5.52-.5938-8.086.5898-3.547,3.1563-7.297,8.4766-5.719,13.2109 .594,3.5469 4.535,6.6993 7.691,8.0821 2.168-.3946 4.535-1.9727 6.707-3.7461" fill="#d73b35"/>
   <path d="m426.48 36.184c1.973 1.5781 6.903 0.7891 7.692 4.3359 0.394-4.3359 1.379-10.051-0.985-13.797-10.058-11.633-26.031-14.195-39.836-14.59-26.425-2.957-49.695 11.039-74.542 6.1133-11.438-1.9727-22.68-3.9453-33.329-3.7461-0.394 8.082 1.579 18.137-1.379 24.641 9.465 0.3946 21.102 2.9571 31.356 3.3516 21.496 3.1562 41.609 4.3359 63.695-0.9844 14.989-2.168 31.946-5.7187 47.328-5.3242" fill="#2a3e92"/>
  </g>
 </g>
</svg>
